<?xml version="1.0" encoding="UTF-8" standalone="no"?>
<!-- Created with Inkscape (http://www.inkscape.org/) -->

<svg
   xmlns:dc="http://purl.org/dc/elements/1.1/"
   xmlns:cc="http://creativecommons.org/ns#"
   xmlns:rdf="http://www.w3.org/1999/02/22-rdf-syntax-ns#"
   xmlns:svg="http://www.w3.org/2000/svg"
   xmlns="http://www.w3.org/2000/svg"
   xmlns:sodipodi="http://sodipodi.sourceforge.net/DTD/sodipodi-0.dtd"
   xmlns:inkscape="http://www.inkscape.org/namespaces/inkscape"
   width="70mm"
   height="70mm"
   viewBox="0 0 70 70"
   version="1.1"
   id="svg4980"
   inkscape:version="0.92.4 (5da689c313, 2019-01-14)"
   sodipodi:docname="Logo.svg">
  <defs
     id="defs4974">
    <inkscape:path-effect
       effect="bspline"
       id="path-effect4695-5-6-0-7"
       is_visible="true"
       weight="33.333333"
       steps="2"
       helper_size="0"
       apply_no_weight="true"
       apply_with_weight="true"
       only_selected="false" />
    <inkscape:path-effect
       effect="bspline"
       id="path-effect4695-5-8-8"
       is_visible="true"
       weight="33.333333"
       steps="2"
       helper_size="0"
       apply_no_weight="true"
       apply_with_weight="true"
       only_selected="false" />
  </defs>
  <sodipodi:namedview
     id="base"
     pagecolor="#ffffff"
     bordercolor="#666666"
     borderopacity="1.0"
     inkscape:pageopacity="0.0"
     inkscape:pageshadow="2"
     inkscape:zoom="1.4"
     inkscape:cx="227.22274"
     inkscape:cy="153.48222"
     inkscape:document-units="mm"
     inkscape:current-layer="layer1"
     showgrid="false"
     inkscape:window-width="1920"
     inkscape:window-height="1017"
     inkscape:window-x="-8"
     inkscape:window-y="-8"
     inkscape:window-maximized="1" />
  <metadata
     id="metadata4977">
    <rdf:RDF>
      <cc:Work
         rdf:about="">
        <dc:format>image/svg+xml</dc:format>
        <dc:type
           rdf:resource="http://purl.org/dc/dcmitype/StillImage" />
        <dc:title></dc:title>
      </cc:Work>
    </rdf:RDF>
  </metadata>
  <g
     inkscape:label="Layer 1"
     inkscape:groupmode="layer"
     id="layer1"
     transform="translate(0,-227)">
    <path
       inkscape:connector-curvature="0"
       style="fill:#915800;fill-opacity:1;stroke:none;stroke-width:0.16318835;stroke-opacity:1"
       d="M 0,294.2043 V 297 h 69.999863 v -2.7957 z"
       id="rect4790-3" />
    <path
       inkscape:connector-curvature="0"
       style="fill:#64ab1f;fill-opacity:1;stroke:none;stroke-width:0.26458332;stroke-opacity:1"
       d="m 35.896,269.06889 c -0.830998,0 -1.500167,0.66918 -1.500167,1.50019 v 23.63522 h 3.96875 v -23.63522 c 0,-0.83101 -0.669168,-1.50019 -1.500166,-1.50019 z"
       id="rect4749-5-0" />
    <path
       inkscape:connector-curvature="0"
       style="fill:#ffffff;fill-opacity:1;stroke:#000000;stroke-width:0.13229166;stroke-opacity:1"
       d="m 54.60111,229.85624 a 10,10 0 0 0 -9.999911,9.99991 v 1.9761 c 0,0 0,5.3e-4 0,5.3e-4 v 33.02331 3.02359 5.3e-4 c 2.1e-5,0.0682 0.004,0.13562 0.01029,0.20205 0,0 0,5.2e-4 0,5.2e-4 0.007,0.0664 0.0164,0.13158 0.0294,0.19586 0,0 0,5.3e-4 0,5.3e-4 0.0131,0.0644 0.0294,0.1277 0.0486,0.18965 0.01921,0.062 0.0417,0.12223 0.0667,0.18139 0,0 0,5.3e-4 0,5.3e-4 0.0747,0.17731 0.174559,0.34162 0.295068,0.48782 0.120632,0.1463 0.261962,0.27453 0.419611,0.38086 0,0 5.29e-4,0 5.29e-4,0 0.0524,0.0353 0.106379,0.0684 0.162259,0.0987 0,0 5.29e-4,0 5.29e-4,0 0.223938,0.12129 0.4743,0.20102 0.740518,0.2279 0,0 5.29e-4,0 5.29e-4,0 0.0664,0.007 0.1338,0.0103 0.202049,0.0103 0,0 5.3e-4,0 5.3e-4,0 h 16.04709 c 0.13666,-3e-5 0.270729,-0.0141 0.399449,-0.0403 0.0643,-0.0131 0.12785,-0.0294 0.189659,-0.0486 0.0618,-0.0192 0.122891,-0.0413 0.181901,-0.0662 0.059,-0.0249 0.11671,-0.0529 0.172601,-0.0832 0.0559,-0.0303 0.110339,-0.0633 0.162779,-0.0987 0.10499,-0.0708 0.203261,-0.15162 0.292489,-0.24081 0.0446,-0.0446 0.0869,-0.0913 0.127122,-0.14004 0,0 0,-5.3e-4 0,-5.3e-4 0.0401,-0.0487 0.0783,-0.099 0.113689,-0.15142 0,0 0,-5.3e-4 0,-5.3e-4 0.0708,-0.10499 0.132051,-0.21774 0.181901,-0.33589 0.0498,-0.11816 0.0885,-0.24285 0.114718,-0.37156 0.0131,-0.0643 0.0232,-0.12994 0.03,-0.19637 0.007,-0.0664 0.01,-0.13432 0.01,-0.20257 v -36.04693 c 0,0 0,-5.3e-4 0,-5.3e-4 v -1.97611 a 10,10 0 0 0 -9.999919,-9.99989 z"
       id="circle3721-9" />
    <path
       inkscape:connector-curvature="0"
       style="stroke-width:0.29025435"
       d="m 47.101001,279.84603 v 7.4998 6.85847 h 6.000152 v -2.85821 c 0,-0.831 0.668649,-1.50016 1.499647,-1.50016 0.831001,0 1.500169,0.66916 1.500169,1.50016 v 2.85821 h 6.00015 v -6.85847 -7.4998 H 54.6008 Z"
       id="rect3750-7" />
    <g
       transform="matrix(0.40336962,0.25775722,-0.25775722,0.40336962,82.736097,286.88315)"
       id="g4699-4-4-2">
      <path
         inkscape:connector-curvature="0"
         id="path4662-9-0-3"
         d="m -127.00001,4.1941003 c -12.34698,1.5e-5 -29.98579,8.8196307 -47.625,17.6392327 17.63921,8.819603 35.27802,17.639219 47.625,17.639234 12.34699,1.4e-5 19.40275,-8.819758 26.45834,-17.639234 -7.05559,-8.819475 -14.11135,-17.6392467 -26.45834,-17.6392327 z"
         style="fill:#64ab1f;fill-opacity:1;stroke:none;stroke-width:0.26458332px;stroke-linecap:butt;stroke-linejoin:miter;stroke-opacity:1" />
      <path
         inkscape:original-d="m -103.1875,21.833333 c -8.37821,-0.882209 -16.75668,-1.764153 -25.13542,-2.645833 -14.11123,0.881704 -28.22195,1.763624 -42.33333,2.645833"
         inkscape:path-effect="#path-effect4695-5-8-8"
         inkscape:connector-curvature="0"
         id="path4693-5-3-4"
         d="m -103.1875,21.833333 c -8.37824,-0.88192 -16.75671,-1.763864 -28.00167,-1.763873 -11.24496,-9e-6 -25.35568,0.881911 -39.46708,1.763873"
         style="fill:none;stroke:#000000;stroke-width:0.26458332px;stroke-linecap:butt;stroke-linejoin:miter;stroke-opacity:1" />
    </g>
    <g
       transform="matrix(-0.40336962,0.25775722,0.25775722,0.40336962,-9.864903,286.88315)"
       id="g4699-4-8-5-9">
      <path
         inkscape:connector-curvature="0"
         id="path4662-9-2-6-5"
         d="m -127.00001,4.1941003 c -12.34698,1.5e-5 -29.98579,8.8196307 -47.625,17.6392327 17.63921,8.819603 35.27802,17.639219 47.625,17.639234 12.34699,1.4e-5 19.40275,-8.819758 26.45834,-17.639234 -7.05559,-8.819475 -14.11135,-17.6392467 -26.45834,-17.6392327 z"
         style="fill:#64ab1f;fill-opacity:1;stroke:none;stroke-width:0.26458332px;stroke-linecap:butt;stroke-linejoin:miter;stroke-opacity:1" />
      <path
         inkscape:original-d="m -103.1875,21.833333 c -8.37821,-0.882209 -16.75668,-1.764153 -25.13542,-2.645833 -14.11123,0.881704 -28.22195,1.763624 -42.33333,2.645833"
         inkscape:path-effect="#path-effect4695-5-6-0-7"
         inkscape:connector-curvature="0"
         id="path4693-5-9-7-2"
         d="m -103.1875,21.833333 c -8.37824,-0.88192 -16.75671,-1.763864 -28.00167,-1.763873 -11.24496,-9e-6 -25.35568,0.881911 -39.46708,1.763873"
         style="fill:none;stroke:#000000;stroke-width:0.26458332px;stroke-linecap:butt;stroke-linejoin:miter;stroke-opacity:1" />
    </g>
  </g>
</svg>
