<?xml version="1.0" standalone="no"?>
<!DOCTYPE svg PUBLIC "-//W3C//DTD SVG 20010904//EN"
 "http://www.w3.org/TR/2001/REC-SVG-20010904/DTD/svg10.dtd">
<svg version="1.0" xmlns="http://www.w3.org/2000/svg"
 width="700.000000pt" height="700.000000pt" viewBox="0 0 700.000000 700.000000"
 preserveAspectRatio="xMidYMid meet">
<metadata>
Created by potrace 1.11, written by Peter Selinger 2001-2013
</metadata>
<g transform="translate(0.000000,700.000000) scale(0.100000,-0.100000)"
fill="#000000" stroke="none">
<path d="M5047 6933 c-2 -1 -21 -5 -43 -8 -87 -11 -240 -57 -318 -97 -91 -46
-210 -131 -284 -205 -71 -71 -172 -199 -172 -218 0 -5 -6 -16 -14 -24 -44 -51
-120 -288 -132 -415 -4 -39 -7 -441 -7 -893 l0 -822 -81 -40 c-109 -55 -136
-71 -214 -129 -259 -194 -405 -438 -497 -827 -13 -55 -27 -120 -31 -145 -3
-25 -17 -112 -29 -195 -13 -82 -24 -139 -25 -125 -1 14 -3 33 -5 44 -2 10 -6
39 -9 65 -29 273 -94 530 -182 720 -120 257 -318 457 -585 592 -210 105 -571
215 -919 280 -25 4 -56 10 -70 13 -14 3 -41 7 -60 10 -19 3 -57 10 -85 15 -27
5 -75 12 -105 16 -30 3 -62 8 -70 10 -8 2 -35 7 -60 10 -25 3 -63 8 -85 12
-22 3 -51 7 -65 8 -14 2 -47 6 -75 9 -27 4 -66 9 -85 11 -19 2 -51 6 -70 9
-19 2 -62 7 -95 11 -33 3 -76 8 -95 10 -19 2 -62 7 -95 10 -33 4 -71 8 -85 10
-24 4 -57 7 -190 21 -36 3 -73 8 -83 10 -9 1 -17 -1 -17 -6 0 -8 98 -173 304
-512 386 -634 707 -1072 983 -1339 241 -234 456 -352 733 -403 76 -15 372 -16
435 -2 37 8 121 24 156 30 36 6 254 64 307 82 23 8 46 14 50 14 4 0 7 -573 7
-1272 l0 -1273 213 -3 c166 -2 212 0 213 10 0 7 1 583 1 1279 l1 1265 124 -36
c67 -21 123 -36 123 -33 0 2 8 -1 18 -6 9 -5 31 -11 47 -14 17 -3 62 -12 100
-20 39 -9 97 -19 130 -23 33 -4 69 -8 80 -10 11 -1 25 -3 31 -3 7 -1 11 -106
11 -340 0 -186 3 -351 7 -366 23 -91 100 -153 202 -163 l68 -7 0 -767 0 -768
323 0 323 0 0 171 c0 138 3 178 16 206 44 92 168 121 245 56 56 -47 61 -70 63
-257 l1 -171 323 -3 322 -2 0 770 0 770 53 0 c89 1 164 48 203 128 18 35 19
101 19 1392 l1 1355 37 58 c20 31 37 59 37 62 0 3 15 28 34 57 58 93 59 96 28
92 -15 -2 -52 -5 -82 -8 l-55 -5 0 632 c-1 348 -5 661 -9 697 -19 150 -95 344
-183 468 -26 37 -52 72 -58 78 -5 6 -24 26 -40 45 -70 79 -192 171 -311 234
-45 24 -204 79 -255 89 -13 2 -41 7 -62 11 -37 7 -274 14 -280 8z"/>
</g>
</svg>
